<?xml version="1.0" encoding="UTF-8"?>
<svg width="800px" height="800px" viewBox="0 0 800 800" version="1.1" xmlns="http://www.w3.org/2000/svg" xmlns:xlink="http://www.w3.org/1999/xlink">
    <!-- Generator: Sketch 43.2 (39069) - http://www.bohemiancoding.com/sketch -->
    <title>Group 2</title>
    <desc>Created with Sketch.</desc>
    <defs></defs>
    <g id="Page-1" stroke="none" stroke-width="1" fill="none" fill-rule="evenodd">
        <g id="Group-2">
            <circle id="Oval" fill="#0E0D0D" cx="400" cy="400" r="400"></circle>
            <path d="M733.464543,395.166115 L410.582443,244.20679 L410.582443,219.163054 L410.582443,218.882043 C410.582443,218.432424 410.50376,217.971566 410.447557,217.510707 C410.391355,217.049848 410.357634,216.757596 410.27895,216.386661 C410.200267,216.015726 410.054141,215.667272 409.941737,215.262616 C409.829332,214.857959 409.660725,214.38586 409.469638,213.958723 C409.469638,213.88004 409.469638,213.790116 409.368473,213.700192 C409.267309,213.610269 409.087462,213.250574 408.952577,213.014525 C408.732876,212.627355 408.492741,212.252143 408.233187,211.890479 C407.997934,211.570675 407.746573,211.263038 407.480077,210.968762 C407.210306,210.665269 406.951775,210.373017 406.659524,210.092006 C406.367272,209.810995 406.030058,209.563705 405.704085,209.305174 C405.378112,209.046644 405.08586,208.833075 404.748646,208.619506 C404.41012,208.410846 404.061217,208.219512 403.703284,208.046243 C403.332349,207.866396 402.972654,207.686548 402.579238,207.540422 C402.211527,207.399742 401.836264,207.279658 401.455192,207.180728 C401.073017,207.068323 400.702082,206.967159 400.331147,206.888476 C399.960212,206.809793 399.409429,206.787312 398.948571,206.75359 C398.69004,206.75359 398.43151,206.674907 398.161739,206.674907 L397.891968,206.674907 C397.428456,206.68642 396.966388,206.7315 396.509392,206.809793 C396.131479,206.84181 395.756021,206.898129 395.385346,206.9784 C395.003997,207.067247 394.628581,207.179872 394.2613,207.315613 C393.822167,207.4494 393.390644,207.607 392.968648,207.787712 C392.877109,207.812604 392.787043,207.842626 392.698877,207.877636 L74.8525009,360.983888 C68.9374962,364.134158 66.5635314,371.3916 69.4733323,377.428531 C72.3831332,383.465463 79.5392138,386.129423 85.6883006,383.4648 L102.065645,375.596481 L102.065645,513.112221 C102.071842,520.006665 107.659347,525.59417 114.553792,525.600367 C114.868525,525.600367 115.149536,525.532925 115.453028,525.510444 C115.756521,525.487963 116.048772,525.600367 116.352265,525.600367 L385.493745,525.600367 L385.493745,542.011433 C385.499942,548.905877 391.087447,554.493383 397.981891,554.49958 L679.735163,554.49958 C680.038656,554.49958 680.319667,554.432137 680.623159,554.409656 C680.926652,554.387175 681.218903,554.49958 681.522396,554.49958 C688.41684,554.493383 694.004345,548.905877 694.010542,542.011433 L694.010542,404.293365 L722.887274,417.781913 C729.135558,420.702745 736.568595,418.005312 739.489428,411.757028 C742.41026,405.508744 739.712827,398.075707 733.464543,395.154875 L733.464543,395.166115 Z M127.053179,363.569193 L385.583668,239.03618 L385.583668,250.838659 C385.49377,251.70184 385.49377,252.572024 385.583668,253.435205 L385.583668,259.134116 C385.583668,259.505051 385.471264,259.875986 385.471264,260.258161 L385.471264,500.624074 L127.053179,500.624074 L127.053179,363.569193 Z M669.034249,529.523286 L410.50376,529.523286 L410.50376,514.236266 C410.50376,513.865331 410.616164,513.494396 410.616164,513.112221 L410.616164,271.779629 L669.06797,392.614532 L669.034249,529.523286 Z" id="Shape" fill="#FFFFFF" fill-rule="nonzero"></path>
        </g>
    </g>
</svg>