<?xml version="1.0" encoding="UTF-8"?>
<svg width="1844px" height="380px" viewBox="0 0 1844 380" version="1.1" xmlns="http://www.w3.org/2000/svg" xmlns:xlink="http://www.w3.org/1999/xlink">
    <!-- Generator: Sketch 43.2 (39069) - http://www.bohemiancoding.com/sketch -->
    <title>Group</title>
    <desc>Created with Sketch.</desc>
    <defs></defs>
    <g id="Page-1" stroke="none" stroke-width="1" fill="none" fill-rule="evenodd">
        <g id="Group" fill-rule="nonzero" fill="#FFFFFF">
            <polygon id="Shape" points="534.12 126.72 534.12 174.49 575 174.49 575 126.72 611.19 126.72 611.19 254.46 575 254.46 575 204.16 534.11 204.16 534.11 254.46 497.74 254.46 497.74 126.72"></polygon>
            <polygon id="Shape" points="700.76 126.72 700.76 254.46 664 254.46 664 126.72"></polygon>
            <path d="M819.09,162 C816.92,160.37 814.75,158.74 812.58,157.3 C811.13,156.57 801.36,150.96 792.85,150.96 C782.9,150.96 779.47,157.12 779.47,161.46 C779.589448,164.598102 781.202556,167.489803 783.81,169.24 C786.7,171.05 792.67,172.5 799.91,174.49 C802.08,174.85 815.83,177.92 824.16,184.62 C829.58,188.96 837.16,197.28 837.16,213.21 C837.16,224.6 834.09,234.38 826.31,242.88 C816.36,254.1 802.61,257.72 788.13,257.72 C763.89,257.72 749.23,247.58 740.55,240.89 L753.03,214.29 L759.03,218.63 C770.03,226.23 778.57,229.13 784.54,229.13 C793.05,229.13 801.73,224.42 801.73,215.56 C801.806233,212.722871 800.842377,209.955788 799.02,207.78 C795.22,203.25 787.44,202.17 782.19,200.72 C775.766907,198.863186 769.478803,196.567794 763.37,193.85 C756.5,190.59 744.74,182.85 744.74,163.45 C744.622093,157.1676 745.856672,150.933316 748.36,145.17 C753.06,134.86 764.28,123.46 789.97,123.46 C800.944541,123.36205 811.788805,125.841913 821.63,130.7 C825.07,132.51 828.15,134.5 831.4,136.49 L819.09,162 Z" id="Shape"></path>
            <path d="M1048.16,168.15 C1045.82896,165.861903 1043.284,163.802488 1040.56,162 C1034.4,157.84 1028.07,155.49 1020.47,155.49 C1012.39053,155.433327 1004.58213,158.401162 998.58,163.81 C991.149061,170.862455 987.01411,180.70654 987.18,190.95 C987.176879,198.257406 989.258315,205.414079 993.18,211.58 C998.6219,220.607596 1008.46063,226.05281 1019,225.87 C1034,225.87 1045.06,216.46 1048.68,213.57 L1048.68,249.57 C1041.98,253.01 1032.57,257.72 1015.2,257.72 C992.59,257.72 980.28,250.12 972.69,243.78 C957.49,230.94 949.53,211.03 949.53,191.31 C949.478182,181.711094 951.319992,172.196209 954.95,163.31 C965.81,136.89 990.6,123.5 1018.64,123.5 C1030.22,123.5 1038.55,125.67 1042.89,127.66 C1044.76925,128.421276 1046.58497,129.33081 1048.32,130.38 L1048.16,168.15 Z" id="Shape"></path>
            <polygon id="Shape" points="1137.9 126.72 1137.9 174.49 1178.79 174.49 1178.79 126.72 1215 126.72 1215 254.46 1178.81 254.46 1178.81 204.16 1137.9 204.16 1137.9 254.46 1101.53 254.46 1101.53 126.72"></polygon>
            <path d="M1304,202.17 C1304.18,203.98 1304.18,205.79 1304.36,207.6 C1304.72,213.21 1306.53,227.86 1324.44,227.86 C1333.67,227.86 1338.19,223.52 1340.54,220.44 C1344.54,215.02 1344.89,208.5 1344.89,202.17 L1344.89,126.9 L1380.89,126.9 L1380.89,208.14 C1380.89,213.39 1381.25,225.51 1372.75,237.81 C1361.17,254.81 1341.09,257.72 1322.09,257.72 C1307.98,257.72 1292.42,255.54 1281.02,245.72 C1276.39156,241.719629 1272.84284,236.620069 1270.7,230.89 C1267.81,223.29 1267.81,215.51 1267.81,207.73 L1267.81,126.72 L1304,126.72 L1304,202.17 Z" id="Shape"></path>
            <path d="M1481,126.72 C1495.84,126.72 1501.45,127.99 1508.5,131.42 C1511.38248,132.889631 1514.06998,134.713769 1516.5,136.85 C1521.2,141.19 1527.17,150.24 1527.17,165.62 C1527.17,170.87 1526.81,182.81 1517.76,193.48 C1515.62301,195.941853 1513.19144,198.131615 1510.52,200 C1508.45004,201.273114 1506.27156,202.360684 1504.01,203.25 L1541.65,254.46 L1498.76,254.46 L1468.19,210.67 L1468.19,254.46 L1433.99,254.46 L1433.99,126.72 L1481,126.72 Z M1468.16,183.35 L1474.31,183.35 C1478.11,183.35 1491.5,184.08 1491.5,169.24 C1491.5,155.85 1480.1,156.03 1476.3,156.03 L1468.16,156.03 L1468.16,183.35 Z" id="Shape"></path>
            <path d="M1676.36,168.15 C1674.02896,165.861903 1671.484,163.802488 1668.76,162 C1662.61,157.84 1656.28,155.49 1648.68,155.49 C1640.60053,155.433327 1632.79213,158.401162 1626.79,163.81 C1619.35906,170.862455 1615.22411,180.70654 1615.39,190.95 C1615.38688,198.257406 1617.46832,205.414079 1621.39,211.58 C1626.83644,220.627867 1636.70136,226.077025 1647.26,225.87 C1662.26,225.87 1673.32,216.46 1676.94,213.57 L1676.94,249.57 C1670.24,253.01 1660.83,257.72 1643.46,257.72 C1620.85,257.72 1608.54,250.12 1600.94,243.78 C1585.74,230.94 1577.78,211.03 1577.78,191.31 C1577.73266,181.710547 1579.57783,172.195891 1583.21,163.31 C1594.07,136.89 1618.86,123.5 1646.9,123.5 C1658.48,123.5 1666.8,125.67 1671.15,127.66 C1673.02507,128.423427 1674.8373,129.332888 1676.57,130.38 L1676.36,168.15 Z" id="Shape"></path>
            <polygon id="Shape" points="1766.11 126.72 1766.11 174.49 1807 174.49 1807 126.72 1843.18 126.72 1843.18 254.46 1807 254.46 1807 204.16 1766.11 204.16 1766.11 254.46 1729.74 254.46 1729.74 126.72"></polygon>
            <path d="M190,380 C85.5,380 0.49,295 0.49,190.49 C0.49,85.98 85.49,0.97 190,0.97 C294.51,0.97 379.52,85.97 379.52,190.49 C379.52,295.01 294.47,380 190,380 Z M190,11.39 C91.25,11.39 10.9,91.73 10.9,190.49 C10.9,289.25 91.25,369.59 190,369.59 C288.75,369.59 369.1,289.24 369.1,190.49 C369.1,91.74 288.73,11.35 190,11.35 L190,11.39 Z" id="Shape"></path>
            <path d="M330.79,186 L196.14,123 L196.14,112.59 L196.14,112.47 C196.129902,112.279088 196.109875,112.08883 196.08,111.9 C196.06722,111.741942 196.043834,111.584922 196.01,111.43 C195.972495,111.277302 195.925742,111.127025 195.87,110.98 C195.813763,110.796307 195.746985,110.616008 195.67,110.44 C195.674129,110.40345 195.674129,110.36655 195.67,110.33 C195.67,110.23 195.55,110.14 195.5,110.05 C195.411875,109.879687 195.311616,109.715931 195.2,109.56 C195.1,109.42 194.99,109.3 194.88,109.17 C194.77,109.04 194.66,108.92 194.54,108.81 C194.417165,108.691802 194.286899,108.581577 194.15,108.48 C194.02,108.38 193.89,108.28 193.75,108.19 C193.61,108.1 193.46,108.03 193.31,107.95 C193.16,107.87 193.01,107.8 192.85,107.74 C192.69,107.68 192.53,107.64 192.36,107.59 C192.19,107.54 192.05,107.5 191.88,107.47 L191.31,107.41 L190.98,107.41 L190.87,107.41 C190.67,107.41 190.48,107.41 190.29,107.47 L189.83,107.54 L189.37,107.68 C189.19,107.74 189.01,107.8 188.83,107.88 L188.72,107.88 L56.18,171.71 C53.9932502,172.767902 52.8277942,175.196641 53.3707045,177.564399 C53.9136148,179.932158 56.0207961,181.610503 58.45,181.61 C59.2300153,181.612055 59.9999866,181.434106 60.7,181.09 L67.53,177.8 L67.53,235.15 C67.53,238.027404 69.8625965,240.36 72.74,240.36 L73.12,240.36 L73.49,240.36 L185.73,240.36 L185.73,247.2 C185.727344,248.580858 186.274028,249.906068 187.249505,250.883421 C188.224982,251.860774 189.54914,252.410003 190.93,252.41 L308.43,252.41 L308.8,252.41 L309.17,252.41 C312.047404,252.41 314.38,250.077404 314.38,247.2 L314.38,189.79 L326.43,195.42 C329.029416,196.597696 332.092534,195.465028 333.300396,192.879491 C334.508257,190.293954 333.411307,187.217865 330.84,185.98 L330.79,186 Z M77.9,172.81 L185.72,120.88 L185.72,125.8 C185.689994,126.159375 185.689994,126.520625 185.72,126.88 L185.72,129.26 L185.72,129.73 L185.72,230 L77.9,230 L77.9,172.81 Z M303.9,242.01 L196.09,242.01 L196.09,235.64 C196.099827,235.483487 196.099827,235.326513 196.09,235.17 L196.09,134.53 L303.87,184.92 L303.9,242.01 Z" id="Shape"></path>
            <path d="M437.42,361.43 C434.542596,361.43 432.21,359.097404 432.21,356.22 L432.21,11.22 C432.210001,8.34259694 434.542597,6.01000124 437.42,6.01000124 C440.297403,6.01000124 442.629999,8.34259694 442.63,11.22 L442.63,356.22 C442.624497,359.095121 440.295121,361.424497 437.42,361.43 Z" id="Shape"></path>
        </g>
    </g>
</svg>
