<?xml version="1.0" encoding="UTF-8"?>
<svg width="100px" height="100px" viewBox="0 0 100 100" version="1.1" xmlns="http://www.w3.org/2000/svg" xmlns:xlink="http://www.w3.org/1999/xlink">
    <!-- Generator: Sketch 43.2 (39069) - http://www.bohemiancoding.com/sketch -->
    <title>Group 2 Copy</title>
    <desc>Created with Sketch.</desc>
    <defs></defs>
    <g id="Page-1" stroke="none" stroke-width="1" fill="none" fill-rule="evenodd">
        <g id="Group-2-Copy">
            <circle id="Oval" fill="#0E0D0D" cx="50" cy="50" r="50"></circle>
            <path d="M91.6830679,49.3957644 L51.3228053,30.5258488 L51.3228053,27.3953817 L51.3228053,27.3602553 C51.3228053,27.304053 51.3129699,27.2464457 51.3059447,27.1888384 C51.2989194,27.131231 51.2947042,27.0946995 51.2848688,27.0483327 C51.2750334,27.0019658 51.2567677,26.958409 51.2427171,26.907827 C51.2286665,26.8572449 51.2075907,26.7982325 51.1837047,26.7448404 C51.1837047,26.735005 51.1837047,26.7237645 51.1710592,26.712524 C51.1584137,26.7012836 51.1359328,26.6563218 51.1190721,26.6268156 C51.0916095,26.5784193 51.0615926,26.5315178 51.0291484,26.4863099 C50.9997418,26.4463343 50.9683216,26.4078798 50.9350096,26.3710952 C50.9012882,26.3331586 50.8689719,26.2966272 50.8324404,26.2615007 C50.795909,26.2263743 50.7537573,26.1954631 50.7130106,26.1631468 C50.6722639,26.1308304 50.6357325,26.1041344 50.5935808,26.0774383 C50.551265,26.0513558 50.5076521,26.027439 50.4629104,26.0057804 C50.4165436,25.9832995 50.3715817,25.9608185 50.3224047,25.9425528 C50.2764409,25.9249678 50.2295329,25.9099572 50.181899,25.897591 C50.1341271,25.8835404 50.0877602,25.8708949 50.0413933,25.8610595 C49.9950265,25.8512241 49.9261787,25.848414 49.8685713,25.8441988 C49.836255,25.8441988 49.8039387,25.8343634 49.7702173,25.8343634 L49.736496,25.8343634 C49.678557,25.8358026 49.6207985,25.8414375 49.563674,25.8512241 C49.5164349,25.8552263 49.4695026,25.8622662 49.4231683,25.8723 C49.3754996,25.8834059 49.3285727,25.897484 49.2826626,25.9144517 C49.2277708,25.931175 49.1738305,25.9508749 49.121081,25.9734641 C49.1096386,25.9765755 49.0983804,25.9803282 49.0873596,25.9847045 L9.35656261,45.122986 C8.61718703,45.5167697 8.32044143,46.42395 8.68416654,47.1785664 C9.04789164,47.9331828 9.94240172,48.2661778 10.7110376,47.9331 L12.7582056,46.9495601 L12.7582056,64.1390276 C12.7589803,65.0008331 13.4574184,65.6992713 14.319224,65.7000459 C14.3585656,65.7000459 14.393692,65.6916156 14.4316285,65.6888055 C14.4695651,65.6859953 14.5060965,65.7000459 14.5440331,65.7000459 L48.1867181,65.7000459 L48.1867181,67.7514291 C48.1874928,68.6132347 48.8859309,69.3116728 49.7477364,69.3124475 L84.9668954,69.3124475 C85.0048319,69.3124475 85.0399584,69.3040171 85.0778949,69.301207 C85.1158314,69.2983969 85.1523629,69.3124475 85.1902995,69.3124475 C86.052105,69.3116728 86.7505431,68.6132347 86.7513178,67.7514291 L86.7513178,50.5366707 L90.3609093,52.2227391 C91.1419448,52.5878431 92.0710744,52.250664 92.4361785,51.4696285 C92.8012825,50.688593 92.4641034,49.7594634 91.6830679,49.3943593 L91.6830679,49.3957644 Z M15.8816474,45.4461491 L48.1979586,29.8795225 L48.1979586,31.3548324 C48.1867213,31.46273 48.1867213,31.571503 48.1979586,31.6794006 L48.1979586,32.3917645 C48.1979586,32.4381314 48.183908,32.4844982 48.183908,32.5322702 L48.183908,62.5780092 L15.8816474,62.5780092 L15.8816474,45.4461491 Z M83.6292811,66.1904108 L51.3129699,66.1904108 L51.3129699,64.2795333 C51.3129699,64.2331664 51.3270205,64.1867995 51.3270205,64.1390276 L51.3270205,33.9724536 L83.6334963,49.0768164 L83.6292811,66.1904108 Z" id="Shape" fill="#FFFFFF" fill-rule="nonzero"></path>
        </g>
    </g>
</svg>